<mxfile host="app.diagrams.net" modified="2022-12-13T07:50:58.286Z" agent="5.0 (Macintosh; Intel Mac OS X 10_15_7) AppleWebKit/537.36 (KHTML, like Gecko) Chrome/108.0.0.0 Safari/537.36" version="20.6.2" etag="tKdb-RHsamuGOie60zhn" type="github">
  <diagram id="HjAgQQgAci8uWXv3D0lz" name="第 1 页">
    <mxGraphModel dx="1114" dy="798" grid="1" gridSize="10" guides="1" tooltips="1" connect="1" arrows="1" fold="1" page="1" pageScale="1" pageWidth="827" pageHeight="1169" math="0" shadow="0">
      <root>
        <mxCell id="0" />
        <mxCell id="1" parent="0" />
        <mxCell id="j5e14Ck0qv1ZzKRkd9pl-13" value="" style="ellipse;shape=cloud;whiteSpace=wrap;html=1;sketch=1;strokeWidth=2;fontSize=22;fillColor=#f5f5f5;fontColor=#333333;strokeColor=#666666;" vertex="1" parent="1">
          <mxGeometry x="440" y="172.5" width="300" height="310" as="geometry" />
        </mxCell>
        <mxCell id="j5e14Ck0qv1ZzKRkd9pl-1" value="" style="rounded=0;whiteSpace=wrap;html=1;strokeWidth=2;sketch=1;fillColor=#f5f5f5;fontColor=#333333;strokeColor=#666666;" vertex="1" parent="1">
          <mxGeometry x="130" y="240" width="120" height="240" as="geometry" />
        </mxCell>
        <mxCell id="j5e14Ck0qv1ZzKRkd9pl-2" value="&lt;span style=&quot;font-size: 22px;&quot;&gt;&lt;b&gt;int i = 10&lt;/b&gt;&lt;/span&gt;" style="rounded=1;whiteSpace=wrap;html=1;sketch=1;strokeWidth=2;dashed=1;" vertex="1" parent="1">
          <mxGeometry x="135" y="420" width="110" height="50" as="geometry" />
        </mxCell>
        <mxCell id="j5e14Ck0qv1ZzKRkd9pl-3" value="&lt;span style=&quot;font-size: 22px;&quot;&gt;&lt;b&gt;P 0x1212&lt;/b&gt;&lt;/span&gt;" style="rounded=1;whiteSpace=wrap;html=1;sketch=1;strokeWidth=2;dashed=1;fillColor=#dae8fc;strokeColor=#6c8ebf;" vertex="1" parent="1">
          <mxGeometry x="135" y="360" width="110" height="50" as="geometry" />
        </mxCell>
        <mxCell id="j5e14Ck0qv1ZzKRkd9pl-4" value="&lt;b&gt;Stack&lt;/b&gt;" style="text;html=1;align=center;verticalAlign=middle;resizable=0;points=[];autosize=1;strokeColor=none;fillColor=none;fontSize=22;" vertex="1" parent="1">
          <mxGeometry x="150" y="200" width="80" height="40" as="geometry" />
        </mxCell>
        <mxCell id="j5e14Ck0qv1ZzKRkd9pl-7" value="Person" style="swimlane;whiteSpace=wrap;html=1;sketch=1;strokeWidth=2;fontSize=22;fillColor=#dae8fc;strokeColor=#6c8ebf;" vertex="1" parent="1">
          <mxGeometry x="520" y="270" width="170" height="115" as="geometry" />
        </mxCell>
        <mxCell id="j5e14Ck0qv1ZzKRkd9pl-11" value="&lt;b&gt;Name: Leon&lt;/b&gt;" style="text;html=1;align=center;verticalAlign=middle;resizable=0;points=[];autosize=1;strokeColor=none;fillColor=none;fontSize=22;sketch=1;strokeWidth=2;" vertex="1" parent="j5e14Ck0qv1ZzKRkd9pl-7">
          <mxGeometry x="10" y="30" width="150" height="40" as="geometry" />
        </mxCell>
        <mxCell id="j5e14Ck0qv1ZzKRkd9pl-12" value="&lt;b&gt;Age: 22&lt;/b&gt;" style="text;html=1;align=center;verticalAlign=middle;resizable=0;points=[];autosize=1;strokeColor=none;fillColor=none;fontSize=22;" vertex="1" parent="j5e14Ck0qv1ZzKRkd9pl-7">
          <mxGeometry x="40" y="70" width="100" height="40" as="geometry" />
        </mxCell>
        <mxCell id="j5e14Ck0qv1ZzKRkd9pl-9" value="&lt;b&gt;Heap&lt;/b&gt;" style="text;html=1;align=center;verticalAlign=middle;resizable=0;points=[];autosize=1;strokeColor=none;fillColor=none;fontSize=22;" vertex="1" parent="1">
          <mxGeometry x="565" y="470" width="80" height="40" as="geometry" />
        </mxCell>
        <mxCell id="j5e14Ck0qv1ZzKRkd9pl-10" value="" style="curved=1;endArrow=classic;html=1;rounded=0;fontSize=22;entryX=0;entryY=0.25;entryDx=0;entryDy=0;strokeWidth=3;dashed=1;" edge="1" parent="1" target="j5e14Ck0qv1ZzKRkd9pl-7">
          <mxGeometry width="50" height="50" relative="1" as="geometry">
            <mxPoint x="250" y="385" as="sourcePoint" />
            <mxPoint x="440" y="300" as="targetPoint" />
            <Array as="points">
              <mxPoint x="280" y="380" />
              <mxPoint x="380" y="240" />
            </Array>
          </mxGeometry>
        </mxCell>
      </root>
    </mxGraphModel>
  </diagram>
</mxfile>
